<svg xmlns="http://www.w3.org/2000/svg" version="1.1" xmlns:xlink="http://www.w3.org/1999/xlink" xmlns:svgjs="http://svgjs.dev/svgjs" viewBox="0 0 800 800"><defs><filter id="uuunion-blur" x="-100%" y="-100%" width="400%" height="400%" color-interpolation-filters="sRGB">
        <feGaussianBlur in="SourceGraphic" stdDeviation="7.5 0" result="blur"></feGaussianBlur>
        <feDropShadow stdDeviation="12.307692307692308" in="blur" dx="10" dy="10" flood-color="hsl(265, 55%, 30%)" flood-opacity="0.25" x="0%" y="0%" width="100%" height="100%"></feDropShadow>
      </filter><filter id="uuunion-blur2" x="-100%" y="-100%" width="400%" height="400%" color-interpolation-filters="sRGB">
        <feGaussianBlur in="SourceGraphic" stdDeviation="7.5 0" result="blur"></feGaussianBlur>
        <feDropShadow stdDeviation="12.307692307692308" in="blur" dx="-10" dy="-10" flood-color="hsl(265, 55%, 30%)" flood-opacity="0.25" x="0%" y="0%" width="100%" height="100%"></feDropShadow>
      </filter><linearGradient gradientTransform="rotate(0, 0.5, 0.5)" x1="50%" y1="0%" x2="50%" y2="100%" id="uuunion-grad"><stop stop-color="hsl(265, 55%, 60%)" offset="10%"></stop><stop stop-color="hsl(265, 55%, 30%)" offset="90%"></stop></linearGradient><linearGradient gradientTransform="rotate(135, 0.5, 0.5)" x1="50%" y1="0%" x2="50%" y2="100%" id="uuunion-grad2"><stop stop-color="hsl(265, 55%, 60%)" offset="25%"></stop><stop stop-color="hsl(265, 55%, 30%)" offset="100%"></stop></linearGradient><linearGradient gradientTransform="rotate(333, 0.5, 0.5)" x1="50%" y1="0%" x2="50%" y2="100%" id="uuunion-grad3"><stop stop-color="hsl(265, 55%, 60%)" offset="0%"></stop><stop stop-color="hsl(265, 55%, 30%)" offset="75%"></stop></linearGradient></defs><path d="M-78.9 -77.22Q-64.29 -75.36 -49.68 -73.75 -35.08 -72.48 -20.47 -71.62 -5.86 -71.22 8.74 -71.3 23.35 -71.86 37.96 -72.86 52.57 -74.25 67.18 -75.95 81.79 -77.88 96.39 -79.92 111 -81.97 125.61 -83.91 140.22 -85.63 154.83 -87.05 169.44 -88.08 184.05 -88.66 198.66 -88.78 213.27 -88.41 227.87 -87.59 242.48 -86.35 257.09 -84.76 271.7 -82.91 286.31 -80.9 300.92 -78.84 315.53 -76.85 330.14 -75.03 344.75 -73.47 359.35 -72.28 373.96 -71.51 388.57 -71.2 403.18 -71.37 417.79 -72.02 432.4 -73.1 447.01 -74.55 461.62 -76.31 476.23 -78.27 490.83 -80.32 505.44 -82.35 520.05 -84.26 534.66 -85.93 549.27 -87.27 563.88 -88.22 578.49 -88.72 593.1 -88.75 607.71 -88.29 622.32 -87.38 636.92 -86.07 651.53 -84.42 666.14 -82.53 680.75 -80.51 695.36 -78.45 709.97 -76.48 724.58 -74.7 739.19 -73.22 753.8 -72.1 768.4 -71.41 783.01 -71.2 797.62 -71.46 812.23 -72.19 826.84 -73.35 841.45 -74.87 856.06 -76.67 857.7 -61.59 860.98 -46.5 865.67 -31.42 871.42 -16.33 877.81 -1.25 884.35 13.83 890.58 28.91 896.02 44 900.27 59.08 903.03 74.17 904.09 89.25 903.36 104.34 900.91 119.42 896.91 134.51 891.66 149.59 885.55 164.68 879.03 179.76 872.58 194.85 866.67 209.93 861.76 225.02 858.19 240.1 856.23 255.19 856.03 270.27 857.6 285.36 860.83 300.44 865.47 315.53 871.19 330.61 877.56 345.7 884.1 360.78 890.35 375.87 895.83 390.95 900.14 406.04 902.96 421.12 904.08 436.21 903.42 451.29 901.03 466.38 897.09 481.46 891.88 496.55 885.79 511.63 879.28 526.72 872.82 541.8 866.88 556.89 861.92 571.97 858.3 587.06 856.27 602.14 856 617.23 857.51 632.31 860.68 647.4 865.27 662.48 870.95 677.57 877.31 692.65 883.86 707.74 890.12 722.82 895.64 737.91 900 752.99 902.88 768.07 904.07 783.16 903.48 798.24 901.15 813.33 897.26 828.41 892.1 843.5 886.04 858.58 879.53 873.67 873.06 888.75 858.17 893.5 843.28 897.51 828.4 900.57 813.51 902.5 798.62 903.19 783.74 902.62 768.85 900.81 753.96 897.87 739.08 893.94 724.19 889.26 709.3 884.06 694.42 878.65 679.53 873.31 664.64 868.33 649.76 863.99 634.87 860.53 619.98 858.13 605.1 856.93 590.21 856.98 575.32 858.3 560.44 860.8 545.55 864.36 530.66 868.76 515.78 873.78 500.89 879.15 486 884.55 471.12 889.71 456.23 894.34 441.34 898.18 426.46 901.03 411.57 902.73 396.68 903.18 381.8 902.37 366.91 900.33 352.02 897.19 337.14 893.1 322.25 888.29 307.36 883.03 292.48 877.61 277.59 872.32 262.7 867.44 247.82 863.25 232.93 859.98 218.04 857.8 203.16 856.84 188.27 857.14 173.38 858.69 158.5 861.41 143.61 865.14 128.72 869.69 113.84 874.79 98.95 880.19 84.06 885.57 69.18 890.65 54.29 895.14 39.4 898.81 24.52 901.45 9.63 902.91 -5.25 903.12 -20.13 902.07 -35.02 899.81 -49.91 896.47 -64.79 892.22 -79.68 887.31 -79.97 872.24 -80.27 857.17 -80.55 842.1 -80.78 827.03 -80.96 811.96 -81.07 796.88 -81.09 781.81 -81.04 766.74 -80.91 751.67 -80.71 736.6 -80.46 721.53 -80.17 706.46 -79.87 691.39 -79.58 676.32 -79.32 661.25 -79.11 646.18 -78.97 631.1 -78.9 616.03 -78.91 600.96 -79 585.89 -79.17 570.82 -79.4 555.75 -79.67 540.68 -79.96 525.61 -80.26 510.54 -80.54 495.47 -80.78 480.39 -80.96 465.32 -81.06 450.25 -81.09 435.18 -81.04 420.11 -80.91 405.04 -80.72 389.97 -80.47 374.9 -80.18 359.83 -79.88 344.76 -79.59 329.69 -79.33 314.61 -79.12 299.54 -78.97 284.47 -78.9 269.4 -78.91 254.33 -79 239.26 -79.16 224.19 -79.39 209.12 -79.66 194.05 -79.95 178.98 -80.25 163.9 -80.53 148.83 -80.77 133.76 -80.95 118.69 -81.06 103.62 -81.09 88.55 -81.05 73.48 -80.92 58.41 -80.73 43.34 -80.48 28.27 -80.19 13.2 -79.9 -1.87 -79.6 -16.94 -79.34 -32.01 -79.13 -47.08 -78.98 -62.15 -78.9 -77.22" fill="url(#uuunion-grad)"></path><path d="M-78.9 -77.22Q-78.98 -62.15 -79.13 -47.08 -79.34 -32.01 -79.6 -16.94 -79.9 -1.87 -80.19 13.2 -80.48 28.27 -80.73 43.34 -80.92 58.41 -81.05 73.48 -81.09 88.55 -81.06 103.62 -80.95 118.69 -80.77 133.76 -80.53 148.83 -80.25 163.9 -79.95 178.98 -79.66 194.05 -79.39 209.12 -79.16 224.19 -79 239.26 -78.91 254.33 -78.9 269.4 -78.97 284.47 -79.12 299.54 -79.33 314.61 -79.59 329.69 -79.88 344.76 -80.18 359.83 -80.47 374.9 -80.72 389.97 -80.91 405.04 -70.69 407.34 -60.48 409.46 -50.26 411.36 -40.04 412.97 -29.82 414.27 -19.6 415.22 -0.44 415.94 2.86 415.99 15.51 409.25 28.1 401.93 40.62 394.08 53.06 385.76 65.43 377.07 77.71 368.09 89.91 358.93 102.03 349.71 114.07 340.53 126.04 331.51 137.94 322.75 149.79 314.34 161.59 306.36 173.36 298.87 185.11 291.91 196.85 285.5 208.6 279.63 220.38 274.29 232.2 269.44 244.07 265.01 256.02 260.94 268.06 257.13 280.2 253.49 292.45 249.92 304.83 246.32 317.35 242.58 330 238.61 342.81 234.34 355.76 229.69 368.86 224.6 382.12 219.04 395.51 212.99 409.05 206.45 422.71 199.43 436.48 191.97 450.35 184.13 464.3 175.97 478.31 167.56 492.36 159 506.43 150.36 520.5 141.75 534.53 133.25 548.51 124.94 562.42 116.91 576.21 109.2 589.88 101.88 603.4 94.97 616.74 88.51 629.9 82.47 642.84 76.86 655.56 71.64 668.05 66.76 680.3 62.17 692.29 57.8 704.04 53.57 715.53 49.41 726.79 45.24 737.81 40.97 748.61 36.54 759.2 31.88 769.62 26.92 779.87 21.64 789.98 16 800 9.97 793.11 -7.78 786.92 -25.54 782.04 -43.3 778.97 -61.06 778 -78.83 779.24 -96.59 782.57 -114.35 787.64 -132.11 772.96 -132.45 758.27 -133.19 743.58 -134.3 728.9 -135.71 714.21 -137.36 699.52 -139.15 684.84 -140.99 670.15 -142.77 655.46 -144.4 640.78 -145.8 626.09 -146.88 611.4 -147.59 596.72 -147.89 582.03 -147.76 567.34 -147.21 552.66 -146.28 537.97 -145 523.28 -143.46 508.6 -141.72 493.91 -139.9 479.23 -138.08 464.54 -136.36 449.85 -134.84 435.17 -133.6 420.48 -132.7 405.79 -132.2 391.11 -132.12 376.42 -132.46 361.73 -133.21 347.05 -134.33 332.36 -135.75 317.67 -137.4 302.99 -139.19 288.3 -141.03 273.61 -142.81 258.93 -144.44 244.24 -145.83 229.55 -146.9 214.87 -147.6 200.18 -147.89 185.49 -147.75 170.81 -147.2 156.12 -146.25 141.43 -144.97 126.75 -143.42 112.06 -141.68 97.37 -139.86 82.69 -138.04 68 -136.32 53.32 -134.81 38.63 -133.57 23.94 -132.68 9.26 -132.19 -5.42 -132.12 -20.11 -132.47 -34.79 -133.23 -49.48 -134.36 -64.17 -135.79 -78.85 -137.44 -93.54 -139.24 -108.23 -141.07 -122.91 -142.85 -132.26 -130.88 -115.11 -112.12 -105.99 -103.45 -96.93 -94.72 -87.9 -85.97 -78.9 -77.22" fill="url(#uuunion-grad2)" filter="url(#uuunion-blur)"></path><path d="M818.38 415.96Q828.6 415.93 838.82 415.51 849.04 414.72 859.26 413.56 869.48 412.08 879.7 410.3 889.92 408.27 900.14 406.04 902.96 421.12 904.08 436.21 903.42 451.29 901.03 466.38 897.09 481.46 891.88 496.55 885.79 511.63 879.28 526.72 872.82 541.8 866.88 556.89 861.92 571.97 858.3 587.06 856.27 602.14 856 617.23 857.51 632.31 860.68 647.4 865.27 662.48 870.95 677.57 877.31 692.65 883.86 707.74 890.12 722.82 895.64 737.91 900 752.99 902.88 768.07 904.07 783.16 903.48 798.24 901.15 813.33 897.26 828.41 892.1 843.5 886.04 858.58 879.53 873.67 873.06 888.75 859.39 893.14 845.73 896.92 832.07 899.91 818.41 901.99 804.75 903.06 791.09 903.06 777.43 902 763.76 899.93 750.1 896.94 736.44 893.16 722.78 888.78 709.12 884 695.46 879.03 681.79 874.1 668.13 869.45 654.47 865.28 640.81 861.79 627.15 859.14 613.49 857.45 599.82 856.8 586.16 857.22 572.5 858.69 558.84 861.14 545.18 864.46 531.52 868.49 517.86 873.06 504.19 877.94 490.53 882.92 476.87 887.77 463.21 892.25 449.55 896.17 435.89 899.35 422.22 901.63 408.56 902.92 394.9 903.15 381.24 902.31 367.58 900.45 353.92 897.64 340.25 894.02 326.59 889.75 312.93 885.04 299.27 880.09 285.61 875.13 271.95 870.4 258.28 866.12 244.62 862.47 230.96 859.63 217.3 857.73 203.64 856.85 189.98 857.04 176.32 858.29 162.65 860.54 148.99 863.69 135.33 867.58 121.67 872.05 108.01 876.89 94.35 881.87 80.68 886.76 67.02 891.34 53.36 895.4 39.7 898.75 26.04 901.23 5.63 897.89 -0.93 882.89 -0.75 872.74 -0.58 862.59 -0.43 852.44 -0.3 842.29 0.1 827.07 0.91 822 13.77 815.23 26.62 807.66 39.47 799.34 52.31 790.35 65.1 780.8 77.85 770.82 90.55 760.56 103.17 750.17 115.73 739.81 128.19 729.64 140.57 719.8 152.85 710.42 165.03 701.62 177.11 693.5 189.1 686.11 201 679.5 212.81 673.66 224.54 668.59 236.2 664.22 247.81 660.47 259.37 657.26 270.9 654.45 282.43 651.91 293.96 649.5 305.51 647.08 317.1 644.49 328.76 641.6 340.49 638.29 352.32 634.45 364.26 629.98 376.33 624.84 388.54 618.98 400.9 612.4 413.43 605.12 426.13 597.18 439.01 588.65 452.07 579.62 465.31 570.22 478.72 560.55 492.31 550.75 506.06 540.96 519.96 531.32 533.99 521.94 548.14 512.95 562.38 504.44 576.71 496.5 591.08 489.18 605.48 482.52 619.89 476.52 634.26 471.18 648.57 466.44 662.81 462.25 676.92 458.52 690.9 455.15 704.72 452.02 718.34 449.02 731.75 446.02 744.93 442.9 757.85 439.54 770.52 435.83 782.91 431.68 795.02 427.02 812.61 418.88 818.38 415.96" fill="url(#uuunion-grad3)" filter="url(#uuunion-blur2)"></path></svg>